<?xml version="1.0" encoding="UTF-8"?>
<svg id="Capa_1" xmlns="http://www.w3.org/2000/svg" version="1.1" viewBox="0 0 79.93 73.59">
  <!-- Generator: Adobe Illustrator 30.0.0, SVG Export Plug-In . SVG Version: 2.1.1 Build 123)  -->
  <defs>
    <style>
      .st0 {
        fill: #078ace;
      }
    </style>
  </defs>
  <g id="Hbm9YX">
    <path class="st0" d="M16.42,36.68c-2.11.97-3.8,3.03-6.08.83L.31,22.18c-.48-.99-.42-2.35.29-3.22,7.46-5.39,15.4-10.2,23.01-15.41,1.37-.83,3.06-.34,4.58-.48.1-1.85,1.24-2.8,3.04-2.94,5.7-.42,11.92.34,17.68,0,1.57.04,2.86,1.36,2.85,2.94,1.48.13,3.1-.32,4.47.41l22.26,14.69c1.19.82,1.63,1.91,1.4,3.35l-10.19,15.9c-2.27,2.33-4.03.28-6.17-.74v34.61c0,.73-1.39,2.15-2.2,2.21l-42.23.08c-.99.09-2.67-1.41-2.67-2.3v-34.61ZM45.85,6.01h-11.77l.04,1.43,5.93,3.71,5.77-3.71.04-1.43ZM22.3,30.53v37.18h35.32V30.53c0-.47.88-1.54,1.3-1.82,2.68-1.79,5.21,1.79,7.6,2.64l6.38-9.8c-5.75-3.56-11.21-7.62-16.95-11.19-1.45-.9-2.33-1.74-4.21-1.38,0,1.13-.5,1.77-1.31,2.46-1.58,1.33-7.14,5.09-8.94,5.95-1.15.55-1.9.56-3.06,0-1.8-.86-7.36-4.62-8.94-5.95-.81-.68-1.31-1.33-1.31-2.46l-2.06.04L7.04,21.45l6.24,9.82c.54.34,4.33-2.9,5.61-3.05,1.45-.16,3.16.8,3.41,2.3Z"/>
  </g>
</svg>