<?xml version="1.0" encoding="UTF-8"?>
<svg id="Capa_1" xmlns="http://www.w3.org/2000/svg" version="1.1" viewBox="0 0 108.12 73.32">
  <!-- Generator: Adobe Illustrator 30.0.0, SVG Export Plug-In . SVG Version: 2.1.1 Build 123)  -->
  <defs>
    <style>
      .st0 {
        stroke: #000;
        stroke-miterlimit: 10;
      }
    </style>
  </defs>
  <g id="A4BHVU">
    <g>
      <path class="st0" d="M93.73,21.11c-1.29-1.36-2.43-5.56-3.87-6-6.76.75-1.98,3.72-.99,6.29.35.9.22,2.3.45,2.67.2.32,5.23,2.55,6.64,3.68,14.94,12,10.6,37.03-7.91,42.53-26.03,7.74-43.69-25.14-23.09-42.3,1.34-1.12,6.26-3.7,6.53-4.03.49-.62.74-2.4,1.32-3.49.75-1.43,2.63-2.8,2.87-3.38,1.2-2.9,1.16-5.69,3.08-8.93,3.49-5.9,10.37-8.26,16.49-4.67,4.75,2.79,3.77,8.83,6.5,10.31,1.58.85,3.6.03,3.24,2.79-.7,5.41-6.99,9.06-11.27,4.52ZM101.71,16.5c-6.26-1.01-3.19-9.53-9.56-11.34-7.93-2.25-11.64,3.92-13.49,10.59l4.6.57c.89-.14,1.65-4.75,6.71-4.2,4.39.48,4.33,9.02,9.09,8.2,1.45-.25,2.85-2.35,2.65-3.83ZM86.36,22.72c-2.07-5.39-9.78-5.35-11.53.24,3.88-.95,7.6-.61,11.53-.24ZM101.72,41.93c-5.76-22.12-36.31-22.2-42.27-.24l9.55-1.74c.47-.39,1.38-6.62,2.07-7.78.43-.73.72-.93,1.6-.83,1.58.16,2.41,6.13,2.66,7.69,9.06-.39,17.68.39,26.39,2.9ZM72.91,39.05c-1.71-.33-.78,2.29-1.92,3.12-1.5,1.08-11.33,1.61-11.94,3.43-.84,30.54,44.27,30.14,42.95-.33-4.64-1.56-9.55-2.82-14.44-3.33-1.83-.19-4.96-.5-6.72-.53-2.76-.04-8.25,2.46-7.93-2.36Z"/>
      <path class="st0" d="M40.73,21.76c1.92-.07,4.13-.11,5.55,1.44v1.45s-3.51,3.6-3.51,3.6c10.33,8.83,11.47,24.18,2.75,34.56-10.79,12.84-31.8,10.91-39.93-3.75C-3.83,42.09,8.34,22.59,27.28,22.24c.94-1.89-2.59-6.07-.35-6.89,1.95-.71,5.51,3.41,6.85,3.54,2.3.24,11.15-6.28,6.95,2.86ZM38.33,20.32l-4.56,2.42-3.6-2.9-.55,5.22c-11.27-.81-22.05,6.47-23.94,17.84,8.2-1.42,20.29-3.03,25.66-10.11.84-1.11,1.75-5.1,3.66-2.64.53.67,1.08,3.17,1.8,4.44,2.31,4.11,6.74,6.52,11.14,7.83-.41-3.46-2.23-6.67-4.33-9.35-.81-1.04-3.48-3.04-3.75-3.96-.66-2.24,2.4-4.25,1.84-4.94-4.08,1.54-5.39-.11-3.36-3.84ZM34,34.73c-.65-.47-3.75,3.11-4.64,3.76-6.57,4.79-16.14,6-23.96,7.26-.66,30.29,44.1,30.02,42.97-.4-5.79-1.24-12.28-4.72-14.37-10.61Z"/>
      <path class="st0" d="M70.51,54.42h19.45c1.8,2.06.25,5.5-1.2,7.44-6.35,8.46-19.96,2.89-18.25-7.44ZM87.8,57.3h-14.41c1.47,7.74,12.73,7.76,14.41,0Z"/>
      <path class="st0" d="M72.79,47.33c1.93,1.93-.72,5.14-3.05,3.29s.83-5.51,3.05-3.29Z"/>
      <path class="st0" d="M89.59,46.82c2.93-.42,3.43,3.5,1.23,4.16-3.38,1-4.29-3.72-1.23-4.16Z"/>
      <path class="st0" d="M36.89,54.42c1.71,10.33-11.9,15.91-18.25,7.44-1.45-1.94-3-5.38-1.2-7.44h19.45ZM34.01,57.3h-14.41c1.68,7.76,12.94,7.74,14.41,0Z"/>
      <path class="st0" d="M17.07,46.82c2.93-.42,3.43,3.5,1.23,4.16-3.38,1-4.29-3.72-1.23-4.16Z"/>
      <path class="st0" d="M34.6,47.33c1.93-1.93,5.14.72,3.29,3.05s-5.51-.83-3.29-3.05Z"/>
    </g>
  </g>
</svg>