<?xml version="1.0" encoding="UTF-8"?>
<svg id="Capa_1" xmlns="http://www.w3.org/2000/svg" version="1.1" viewBox="0 0 87.91 46.53">
  <!-- Generator: Adobe Illustrator 30.0.0, SVG Export Plug-In . SVG Version: 2.1.1 Build 123)  -->
  <defs>
    <style>
      .st0 {
        fill: #078ace;
      }
    </style>
  </defs>
  <g id="Y997HH">
    <g>
      <path class="st0" d="M39.07,1.07c3.22-.54,6.65.46,8.19,3.5,1.79,3.53,1.37,5.22,5.3,7.61,4.7,2.86,12.59,6.2,17.8,8.46,4.13,1.79,8.63,2.61,12.45,4.24,1.67.72,2.62,1.64,2.96,3.5,2.01,11.01-7.25,14.95-16.48,15.81H9.19c-5.05-.35-6.75-6.58-6.33-10.79.13-1.29.76-2.67.88-4.01.31-3.45-.36-6.17,1.08-9.61.68-1.63,2.04-3.1,2.59-4.75.91-2.73-.25-5.77,2.49-7.53,1.48-.95,4.42-.97,6.02-.3,3.03,1.26,1.56,4.73,6.19,5.16s12.68-.77,13.98-6.05c.5-2.04.05-4.75,2.99-5.25ZM52.97,16.19c-.07.04-.19.45-.36.63-.92.95-1.93,2.43-3.36,1.57-1.93-1.16,1.07-3.57,1.01-3.88l-3.44-3.47c-.46-.12-2.78,4.15-4.44,2.22s2.22-3.77,2.73-5.4c-.59-2.98-2.69-4.42-5.65-3.51-.02,3.98-2.24,7.65-5.97,9.12l-.14.46c.27.02.51.12.73.26,7.62,4.75,15.9,8.74,22.97,14.21.99,1.27,1.75,2.82,1.9,4.44,8-.37,16.38,1.2,24.01-1.79-.13-1.1-.06-2.54-1.11-3.19-7.44-1.85-14.26-4.92-21.07-8.33-1.14-.16-2.19,3.04-4,2.25-1.92-.83-.39-2.8.61-3.73-.71-.37-3.87-2.17-4.41-1.85ZM55.82,32.84c-.16-1.11-.79-2.03-1.47-2.87l-25.34-14.95c-3.8.56-9.33,1.32-12.26-1.76-1.8-1.89-.8-3.71-4.23-3.36-1.94.2-1.27,1.38-1.46,2.77-.51,3.76-1.33,4.29-2.9,7.33-2.18,4.23-.59,8.45-1.97,12.83h49.63ZM82.31,34.63l-6.78,1.34H6.52c-.39-.05-.34-.02-.33.33,0,1.88,1.08,4.58,3.23,4.79h59.66c4.87-.55,10.84-1.67,13.23-6.46Z"/>
      <path class="st0" d="M9.19,45.2c-1.93-.14-3.57-.99-4.81-2.46-2.28-2.7-2.78-6.77-2.51-9.44.07-.72.27-1.43.47-2.12.19-.67.37-1.29.42-1.89.09-1.05.09-2.05.09-3.02,0-2.14,0-4.35,1.06-6.88.35-.83.83-1.59,1.3-2.32.52-.81,1.01-1.58,1.27-2.36.27-.82.33-1.69.4-2.61.13-1.88.28-4.01,2.5-5.44,1.83-1.17,5.12-1.14,6.94-.38,1.63.68,2.25,1.89,2.74,2.86.6,1.18,1.04,2.03,3.16,2.22,3.71.36,11.74-.49,12.91-5.29.1-.4.16-.84.22-1.31.23-1.77.56-4.18,3.57-4.69h0c4.03-.68,7.66.91,9.25,4.03.5.99.83,1.83,1.13,2.58.75,1.91,1.21,3.06,3.79,4.64,4.28,2.61,11.32,5.65,16.46,7.87l1.22.53c2.07.9,4.27,1.55,6.41,2.19,2.12.63,4.13,1.23,6.04,2.05,2.11.91,3.17,2.17,3.55,4.24.75,4.09.07,7.56-2.01,10.31-3.53,4.66-10.3,6.2-15.36,6.68l-60.19.02ZM13.19,7.75c-1.04,0-2.1.19-2.75.6-1.31.84-1.45,1.97-1.58,3.89-.07,1.01-.14,2.05-.5,3.11-.34,1.01-.92,1.92-1.48,2.8-.44.7-.86,1.35-1.14,2.02-.9,2.16-.9,3.99-.9,6.11,0,1.01,0,2.06-.1,3.2-.07.78-.28,1.53-.49,2.25-.18.63-.35,1.23-.4,1.77-.24,2.46.3,5.87,2.05,7.95.9,1.07,2.03,1.66,3.35,1.75h60.03c4.57-.45,10.77-1.82,13.86-5.9,1.73-2.29,2.28-5.23,1.64-8.74-.25-1.39-.88-2.12-2.37-2.76-1.8-.77-3.75-1.36-5.82-1.97-2.19-.65-4.45-1.33-6.63-2.27l-1.22-.53c-5.19-2.24-12.3-5.31-16.71-8-3.16-1.93-3.8-3.55-4.61-5.61-.28-.7-.59-1.5-1.05-2.41-1.44-2.83-4.63-3.39-7.13-2.97-1.5.25-1.68,1.15-1.92,2.98-.07.5-.14,1.02-.26,1.52-1.43,5.85-9.99,7.27-15.04,6.8-3.22-.3-4.07-1.97-4.75-3.31-.44-.86-.78-1.53-1.73-1.93-.59-.25-1.46-.38-2.34-.38ZM69.13,42.09H9.42c-2.94-.28-4.22-3.56-4.23-5.79,0-.28-.02-.72.35-1.06.35-.33.77-.3,1.04-.28h68.86s8.68-1.71,8.68-1.71l-.91,1.82c-2.53,5.05-8.5,6.38-14.01,7.01h-.06ZM7.24,36.96c.2,1.38,1,3.01,2.27,3.13h59.51c4.1-.47,8.46-1.35,11.04-4l-4.52.88H7.24ZM70.54,33.92c-1.47,0-2.93-.04-4.38-.08-2.37-.06-4.82-.12-7.17-.01l-.96.04-.08-.95c-.14-1.58-.94-2.93-1.62-3.82-4.55-3.5-9.71-6.46-14.71-9.31-2.67-1.53-5.43-3.11-8.08-4.76-.15-.09-.24-.11-.29-.11l-1.23-.1.63-2.1.45-.18c3.22-1.28,5.32-4.5,5.34-8.2v-.73s.71-.22.71-.22c1.67-.51,3.2-.4,4.43.34,1.27.76,2.14,2.12,2.49,3.93l.05.25-.08.24c-.26.82-.95,1.52-1.69,2.25-1.43,1.43-1.57,1.82-1.24,2.2.06.07.15.16.22.16h0c.5,0,1.48-1.14,1.89-1.62.63-.73,1.09-1.26,1.82-1.07l.27.07,3.85,3.88.06.29c.12.56-.19.92-.62,1.44-.27.32-1.07,1.28-1.01,1.66,0,.02.05.07.16.14.42.25.71.14,1.74-.98.13-.15.26-.29.39-.42,0,0,.03-.08.05-.14.1-.21.22-.48.52-.65h0c.75-.45,1.78-.12,4.97,1.61l1.66.87-1.03.97c-.81.76-1.25,1.55-1.2,1.85.01.08.18.17.31.23.33.14.69-.17,1.42-.98.62-.7,1.33-1.49,2.33-1.34l.16.02.15.07c6.32,3.17,13.23,6.36,20.86,8.25l.28.12c1.31.81,1.44,2.31,1.53,3.41.01.18.03.35.05.52l.09.76-.72.28c-4.13,1.62-8.47,1.95-12.78,1.95ZM61.83,31.77c1.47,0,2.95.04,4.39.08,5.27.14,10.7.28,15.68-1.48-.07-.77-.16-1.32-.47-1.6-7.61-1.92-14.47-5.05-20.75-8.19-.17.15-.42.42-.59.62-.74.83-1.99,2.23-3.71,1.48-1.06-.46-1.39-1.19-1.49-1.73-.16-.95.34-1.91.89-2.64-1.18-.62-1.86-.92-2.25-1.06-.06.09-.12.18-.2.26-.11.12-.23.25-.35.38-.86.94-2.3,2.51-4.24,1.35-.78-.47-1.03-1.09-1.11-1.53-.2-1.2.66-2.33,1.32-3.12l-2.17-2.19s-.01.01-.02.02c-.84.98-2,2.32-3.41,2.32h0c-.46,0-1.13-.15-1.73-.85-1.66-1.92.22-3.8,1.34-4.92.4-.4.89-.89,1.1-1.24-.27-1.09-.78-1.88-1.49-2.31-.58-.35-1.31-.45-2.14-.31-.26,3.65-2.21,6.84-5.19,8.59,2.42,1.49,4.95,2.94,7.39,4.33,5.09,2.91,10.35,5.92,15.04,9.54l.18.17c.73.93,1.6,2.33,1.96,4.03.67-.02,1.35-.03,2.03-.03ZM53.14,17.16h0ZM56.98,33.84H4.83l.41-1.3c.56-1.79.59-3.55.62-5.42.04-2.45.08-4.99,1.41-7.57.39-.75.73-1.35,1.03-1.88.91-1.59,1.41-2.47,1.77-5.13.04-.27.03-.56.03-.84-.02-.89-.04-2.55,2.32-2.79,2.76-.28,3.47.75,4.1,2.13.23.5.47,1.02.96,1.53,2.61,2.75,7.9,1.97,11.39,1.46l.35-.05,25.8,15.22.11.14c.72.89,1.48,1.99,1.68,3.35l.17,1.15ZM7.48,31.84h46.95c-.21-.39-.47-.75-.75-1.1l-24.88-14.67c-3.7.54-9.56,1.28-12.78-2.11-.72-.76-1.06-1.49-1.33-2.08-.43-.94-.52-1.13-2.08-.97-.41.04-.52.12-.52.12-.02.06-.01.41,0,.64,0,.34.01.72-.04,1.14-.42,3.04-1.05,4.16-2.01,5.85-.29.51-.62,1.09-.99,1.81-1.11,2.16-1.15,4.36-1.19,6.69-.02,1.52-.05,3.08-.38,4.69Z"/>
    </g>
  </g>
</svg>