<?xml version="1.0" encoding="UTF-8"?>
<svg id="Capa_1" xmlns="http://www.w3.org/2000/svg" version="1.1" viewBox="0 0 190 66">
  <!-- Generator: Adobe Illustrator 30.0.0, SVG Export Plug-In . SVG Version: 2.1.1 Build 123)  -->
  <defs>
    <style>
      .st0 {
        fill: #212125;
      }

      .st1 {
        fill: #078ace;
      }

      .st2 {
        fill: #ff6800;
      }
    </style>
  </defs>
  <g>
    <path class="st1" d="M24.92,51.46c-5.32,0-11.27-3.47-11.27-8.11v-12.14c0-.58-.18-.83-.35-.99-.74-.69-2.49-.8-3.22-.75h-.17c-1.76,0-3.24-1.52-3.24-3.33V8.85h4.38v16.26c1.41.07,3.63.44,5.21,1.9,1.16,1.07,1.77,2.52,1.77,4.21v12.14c0,1.56,3.47,3.74,6.89,3.74,6.19,0,9.05-3.43,9.85-4.63v-2.93h4.38v4.06l-.24.47c-.15.3-3.88,7.41-13.99,7.41Z"/>
    <polygon class="st1" points="39.34 36.85 34.96 36.85 34.96 13.04 32.46 13.04 32.46 13.15 28.08 13.15 28.08 8.67 39.34 8.67 39.34 36.85"/>
    <rect class="st1" x="7.05" y="31.69" width="4.38" height="3.25"/>
    <path class="st1" d="M23.29,58.53h-4.35c-.35,0-.62-.06-.8-.1-4.37-.13-10.89-5.64-10.89-12.41v-9.37h4.38v9.37c0,4.31,4.48,8.03,6.68,8.03.34,0,.61.06.79.1h4.2v4.38ZM18.3,58.43h0,0Z"/>
    <path class="st2" d="M29.63,58.53h-4.81v-4.38h4.03l3.53-3.21c.43-.39,1-.61,1.59-.61h3c.64,0,1.26.26,1.7.72.42.44.66,1.02.66,1.63l.1,5.63-4.37.08-.07-3.68h-.25l-3.53,3.21c-.43.39-1,.61-1.59.61ZM28.28,54.68s0,0-.01,0h.01Z"/>
    <path class="st2" d="M24.71,35.61h-4.38v-9.46c-.12-.31-1.42-1.4-4.58-2.37-1.6-.49-2.68-1.96-2.68-3.64v-11.29h4.38v10.87c4.82,1.55,7.26,3.71,7.26,6.42v9.46Z"/>
    <path class="st1" d="M26.35,44.1c-3.59,0-5.03-1.68-5.29-2.02l-.44-.58v-4.17h4.38v2.23c.3.09.74.17,1.35.17.9,0,1.62-.62,2.02-1.04v-18.09h-.97v-4.38h2.06c1.81,0,3.28,1.47,3.28,3.28v20.55l-.32.53c-.81,1.31-2.99,3.53-6.07,3.53Z"/>
    <path class="st1" d="M26.16,20.5h-2.36c-1.96,0-3.56-1.6-3.56-3.56v-8.48h4.38v7.66h1.54v4.38Z"/>
  </g>
  <g>
    <path class="st0" d="M50.95,10.38h16.44v4.82h-10.84v3.1h9.81v4.47h-9.81v3.24h10.98v4.82h-16.59V10.38Z"/>
    <path class="st0" d="M69.47,27.79l3.15-3.77c2.02,1.61,4.26,2.45,6.63,2.45,1.52,0,2.34-.53,2.34-1.4v-.06c0-.85-.67-1.31-3.45-1.96-4.35-.99-7.71-2.22-7.71-6.43v-.06c0-3.8,3.01-6.54,7.91-6.54,3.48,0,6.19.93,8.41,2.72l-2.83,4c-1.87-1.31-3.91-2.02-5.72-2.02-1.37,0-2.04.58-2.04,1.31v.06c0,.93.7,1.34,3.53,1.99,4.7,1.02,7.62,2.54,7.62,6.37v.06c0,4.18-3.3,6.66-8.27,6.66-3.62,0-7.07-1.14-9.58-3.39Z"/>
    <path class="st0" d="M95.04,15.34h-6.13v-4.96h17.93v4.96h-6.13v15.48h-5.67v-15.48Z"/>
    <path class="st0" d="M110.02,10.38h5.69v20.44h-5.69V10.38Z"/>
    <path class="st0" d="M120.04,10.38h5.67v15.48h9.9v4.96h-15.57V10.38Z"/>
    <path class="st0" d="M136.74,20.66v-.06c0-5.87,4.73-10.63,11.04-10.63s10.98,4.7,10.98,10.57v.06c0,5.87-4.73,10.63-11.04,10.63s-10.98-4.7-10.98-10.57ZM152.98,20.66v-.06c0-2.95-2.13-5.52-5.26-5.52s-5.17,2.51-5.17,5.46v.06c0,2.95,2.13,5.52,5.23,5.52s5.2-2.51,5.2-5.46Z"/>
  </g>
  <g>
    <path class="st2" d="M50.69,48.73v-11.48h5.75v11.36c0,2.95,1.49,4.35,3.77,4.35s3.77-1.34,3.77-4.21v-11.51h5.75v11.33c0,6.6-3.77,9.49-9.58,9.49s-9.46-2.95-9.46-9.35Z"/>
    <path class="st2" d="M73.67,37.25h9.67c3.12,0,5.29.82,6.66,2.22,1.2,1.17,1.81,2.75,1.81,4.76v.06c0,3.12-1.66,5.2-4.21,6.28l4.88,7.13h-6.54l-4.12-6.19h-2.48v6.19h-5.67v-20.44ZM83.07,47.07c1.93,0,3.04-.93,3.04-2.42v-.06c0-1.61-1.17-2.42-3.07-2.42h-3.71v4.91h3.74Z"/>
    <path class="st2" d="M95.25,37.25h10.48c2.57,0,4.38.64,5.58,1.84.82.82,1.31,1.9,1.31,3.3v.06c0,2.37-1.34,3.77-3.15,4.56,2.48.82,4.06,2.22,4.06,4.99v.06c0,3.5-2.86,5.64-7.74,5.64h-10.54v-20.44ZM104.33,45.4c1.72,0,2.69-.58,2.69-1.78v-.06c0-1.11-.88-1.75-2.57-1.75h-3.68v3.59h3.56ZM105.15,53.14c1.72,0,2.72-.67,2.72-1.87v-.06c0-1.11-.88-1.84-2.77-1.84h-4.32v3.77h4.38Z"/>
    <path class="st2" d="M123.78,37.11h5.46l8.7,20.59h-6.07l-1.49-3.65h-7.89l-1.46,3.65h-5.96l8.7-20.59ZM128.74,49.64l-2.28-5.81-2.31,5.81h4.58Z"/>
    <path class="st2" d="M140.5,37.25h5.29l8.41,10.81v-10.81h5.61v20.44h-4.96l-8.73-11.21v11.21h-5.61v-20.44Z"/>
    <path class="st2" d="M163.31,47.53v-.06c0-5.87,4.73-10.63,11.04-10.63s10.98,4.7,10.98,10.57v.06c0,5.87-4.73,10.63-11.04,10.63s-10.98-4.7-10.98-10.57ZM179.55,47.53v-.06c0-2.95-2.13-5.52-5.26-5.52s-5.17,2.51-5.17,5.46v.06c0,2.95,2.13,5.52,5.23,5.52s5.2-2.51,5.2-5.46Z"/>
  </g>
</svg>