<?xml version="1.0" encoding="UTF-8"?>
<svg id="Capa_1" xmlns="http://www.w3.org/2000/svg" version="1.1" viewBox="0 0 320.33 89.77">
  <!-- Generator: Adobe Illustrator 30.0.0, SVG Export Plug-In . SVG Version: 2.1.1 Build 123)  -->
  <defs>
    <style>
      .st0 {
        fill: #212125;
      }

      .st1 {
        fill: #078ace;
      }

      .st2 {
        fill: #fe4e6e;
      }
    </style>
  </defs>
  <g>
    <path class="st1" d="M32.71,77.09c-9.54,0-20.2-6.22-20.2-14.55v-21.76c0-1.04-.32-1.48-.63-1.77-1.32-1.23-4.46-1.43-5.77-1.34h-.3c-3.15.01-5.81-2.73-5.81-5.97V.69h7.84v29.15c2.53.13,6.51.79,9.34,3.4,2.07,1.91,3.17,4.52,3.17,7.54v21.76c0,2.8,6.23,6.7,12.36,6.7,11.11,0,16.22-6.16,17.67-8.31v-5.25h7.84v7.28l-.43.84c-.27.54-6.95,13.29-25.09,13.29Z"/>
    <polygon class="st1" points="58.57 50.89 50.72 50.89 50.72 8.21 46.23 8.21 46.23 8.4 38.39 8.4 38.39 .36 58.57 .36 58.57 50.89"/>
    <rect class="st1" x=".69" y="41.64" width="7.84" height="5.83"/>
    <path class="st1" d="M29.8,89.77h-7.8c-.62,0-1.12-.11-1.43-.18-7.83-.23-19.53-10.11-19.53-22.24v-16.79h7.84v16.79c0,7.74,8.03,14.4,11.97,14.4.61,0,1.1.11,1.42.18h7.54v7.84ZM20.84,89.59h0,0Z"/>
    <path class="st2" d="M41.16,89.77h-8.62v-7.84h7.22l6.33-5.75c.77-.71,1.79-1.1,2.85-1.1h5.38c1.14,0,2.26.47,3.05,1.3.75.78,1.18,1.84,1.18,2.92l.18,10.09-7.84.14-.12-6.6h-.44l-6.33,5.75c-.77.71-1.79,1.1-2.85,1.1ZM38.74,82.86s-.01.01-.02.02l.02-.02Z"/>
    <path class="st2" d="M32.35,48.67h-7.84v-16.96c-.22-.56-2.54-2.51-8.22-4.25-2.88-.88-4.81-3.51-4.81-6.53V.69h7.84v19.5c8.64,2.79,13.02,6.66,13.02,11.52v16.96Z"/>
    <path class="st1" d="M35.28,63.9c-6.43,0-9.03-3.02-9.48-3.63l-.78-1.05v-7.48h7.84v4.01c.54.16,1.33.3,2.42.3,1.61,0,2.91-1.11,3.62-1.87V21.74h-1.73v-7.84h3.69c3.25,0,5.89,2.64,5.89,5.89v36.85l-.58.95c-1.44,2.35-5.36,6.32-10.88,6.32Z"/>
    <path class="st1" d="M34.94,21.57h-4.23c-3.52,0-6.38-2.86-6.38-6.38V0h7.84v13.73h2.76v7.84Z"/>
  </g>
  <g>
    <path class="st0" d="M79.4,3.43h29.48v8.64h-19.43v5.55h17.59v8.01h-17.59v5.81h19.69v8.64h-29.74V3.43Z"/>
    <path class="st0" d="M112.59,34.64l5.66-6.76c3.61,2.88,7.65,4.4,11.89,4.4,2.72,0,4.19-.94,4.19-2.51v-.11c0-1.52-1.2-2.36-6.18-3.51-7.8-1.78-13.82-3.98-13.82-11.52v-.1c0-6.81,5.39-11.73,14.19-11.73,6.23,0,11.1,1.68,15.08,4.87l-5.08,7.17c-3.35-2.36-7.02-3.61-10.26-3.61-2.46,0-3.67,1.05-3.67,2.36v.1c0,1.68,1.26,2.41,6.34,3.56,8.43,1.83,13.67,4.56,13.67,11.42v.1c0,7.49-5.92,11.94-14.82,11.94-6.49,0-12.67-2.04-17.18-6.07Z"/>
    <path class="st0" d="M158.45,12.33h-11V3.43h32.15v8.9h-11v27.75h-10.16V12.33Z"/>
    <path class="st0" d="M185.31,3.43h10.21v36.66h-10.21V3.43Z"/>
    <path class="st0" d="M203.26,3.43h10.16v27.75h17.75v8.9h-27.91V3.43Z"/>
    <path class="st0" d="M233.21,21.86v-.1c0-10.53,8.48-19.06,19.79-19.06s19.69,8.43,19.69,18.96v.11c0,10.52-8.48,19.06-19.79,19.06s-19.69-8.43-19.69-18.96ZM262.32,21.86v-.1c0-5.29-3.82-9.9-9.43-9.9s-9.27,4.5-9.27,9.79v.11c0,5.29,3.82,9.9,9.37,9.9s9.32-4.5,9.32-9.79Z"/>
  </g>
  <g>
    <path class="st0" d="M78.93,72.19v-20.58h10.32v20.37c0,5.29,2.67,7.8,6.76,7.8s6.76-2.41,6.76-7.54v-20.63h10.32v20.32c0,11.83-6.76,17.02-17.18,17.02s-16.97-5.29-16.97-16.76Z"/>
    <path class="st0" d="M120.13,51.61h17.33c5.6,0,9.48,1.47,11.94,3.98,2.15,2.1,3.25,4.92,3.25,8.54v.11c0,5.6-2.98,9.32-7.54,11.26l8.75,12.78h-11.73l-7.38-11.1h-4.45v11.1h-10.16v-36.66ZM136.99,69.21c3.46,0,5.45-1.68,5.45-4.35v-.11c0-2.88-2.09-4.35-5.5-4.35h-6.65v8.8h6.7Z"/>
    <path class="st0" d="M158.82,51.61h18.8c4.61,0,7.85,1.15,10,3.3,1.47,1.47,2.36,3.4,2.36,5.92v.11c0,4.24-2.41,6.76-5.66,8.17,4.45,1.47,7.28,3.98,7.28,8.95v.1c0,6.28-5.13,10.11-13.88,10.11h-18.9v-36.66ZM175.1,66.22c3.09,0,4.82-1.05,4.82-3.19v-.1c0-1.99-1.57-3.14-4.61-3.14h-6.6v6.44h6.39ZM176.57,80.1c3.09,0,4.87-1.2,4.87-3.35v-.1c0-1.99-1.57-3.3-4.97-3.3h-7.75v6.76h7.85Z"/>
    <path class="st0" d="M209.97,51.35h9.79l15.6,36.92h-10.89l-2.67-6.55h-14.14l-2.62,6.55h-10.68l15.6-36.92ZM218.87,73.82l-4.08-10.42-4.14,10.42h8.22Z"/>
    <path class="st0" d="M239.96,51.61h9.48l15.08,19.38v-19.38h10.05v36.66h-8.9l-15.66-20.11v20.11h-10.05v-36.66Z"/>
    <path class="st0" d="M280.85,70.05v-.1c0-10.53,8.48-19.06,19.79-19.06s19.69,8.43,19.69,18.96v.11c0,10.52-8.48,19.06-19.79,19.06s-19.69-8.43-19.69-18.96ZM309.96,70.05v-.1c0-5.29-3.82-9.9-9.43-9.9s-9.27,4.5-9.27,9.79v.11c0,5.29,3.82,9.9,9.37,9.9s9.32-4.5,9.32-9.79Z"/>
  </g>
</svg>